<svg width="407" height="494" viewBox="0 0 407 494" fill="none" xmlns="http://www.w3.org/2000/svg">
<path d="M52.5402 426.539C-17.5134 348.933 -17.5134 230.039 52.5402 152.535L95.5644 195.649C147.193 247.386 147.193 331.586 95.5644 383.425L52.5402 426.539Z" fill="#245EDB"/>
<path d="M52.5402 426.539C-17.5134 348.933 -17.5134 230.039 52.5402 152.535L95.5644 195.649C147.193 247.386 147.193 331.586 95.5644 383.425L52.5402 426.539Z" fill="#245EDB"/>
<path d="M354.216 426.539C424.269 348.933 424.269 230.039 354.216 152.535L311.192 195.649C259.562 247.386 259.562 331.586 311.192 383.425L354.216 426.539Z" fill="#FEBE1D"/>
<path d="M354.216 426.539C424.269 348.933 424.269 230.039 354.216 152.535L311.192 195.649C259.562 247.386 259.562 331.586 311.192 383.425L354.216 426.539Z" fill="#FEBE1D"/>
<path d="M203.886 494C152.864 494 104.677 475.334 67.1191 441.248L110.143 398.134C135.148 373.077 168.454 359.281 203.784 359.281C239.115 359.281 272.421 373.077 297.425 398.134L340.45 441.248C302.892 475.334 254.705 494 203.683 494H203.886Z" fill="#FF5605"/>
<path d="M203.886 494C152.864 494 104.677 475.334 67.1191 441.248L110.143 398.134C135.148 373.077 168.454 359.281 203.784 359.281C239.115 359.281 272.421 373.077 297.425 398.134L340.45 441.248C302.892 475.334 254.705 494 203.683 494H203.886Z" fill="#FF5605"/>
<path d="M197.711 233.489C172.807 231.967 149.625 220.605 132.01 202.954C96.0722 166.94 96.0722 108.508 132.01 72.5962L203.886 0.468506L274.142 70.8716C310.89 107.696 310.89 167.651 274.142 204.475C253.895 224.764 226.562 235.213 197.711 233.489Z" fill="#31C6E3"/>
<path d="M197.711 233.489C172.807 231.967 149.625 220.605 132.01 202.954C96.0722 166.94 96.0722 108.508 132.01 72.5962L203.886 0.468506L274.142 70.8716C310.89 107.696 310.89 167.651 274.142 204.475C253.895 224.764 226.562 235.213 197.711 233.489Z" fill="#31C6E3"/>
</svg>
