<svg width="682" height="223" viewBox="0 0 682 223" fill="none" xmlns="http://www.w3.org/2000/svg">
<path d="M227.487 115.734V41.553H257.149C262.599 41.553 267.158 42.3644 270.785 43.9871C274.431 45.6099 277.167 47.8412 278.99 50.7014C280.814 53.5615 281.746 56.8476 281.746 60.58C281.746 63.4807 281.158 66.0163 280.003 68.2071C278.848 70.3978 277.248 72.1829 275.242 73.5622C273.236 74.9416 270.926 75.9355 268.353 76.5238V77.254C271.169 77.3757 273.824 78.1668 276.295 79.6476C278.767 81.1284 280.773 83.1772 282.313 85.8142C283.853 88.4512 284.623 91.5953 284.623 95.2465C284.623 99.1818 283.65 102.691 281.705 105.774C279.76 108.858 276.903 111.292 273.115 113.077C269.326 114.862 264.666 115.754 259.114 115.754H227.467L227.487 115.734ZM243.149 72.5885H254.758C256.906 72.5885 258.81 72.2031 260.492 71.4526C262.174 70.6818 263.491 69.6067 264.463 68.2071C265.436 66.8074 265.922 65.1238 265.922 63.1765C265.922 60.4989 264.97 58.3284 263.085 56.6854C261.201 55.0423 258.506 54.2309 255.042 54.2309H243.128V72.5885H243.149ZM243.149 102.914H255.913C260.269 102.914 263.47 102.082 265.456 100.399C267.441 98.7152 268.454 96.4839 268.454 93.6846C268.454 91.6359 267.968 89.8102 266.975 88.2483C265.983 86.6864 264.585 85.449 262.761 84.5565C260.938 83.664 258.77 83.2177 256.257 83.2177H243.128V102.914H243.149Z" fill="#220E6D"/>
<path d="M319.855 116.829C314.142 116.829 309.218 115.673 305.105 113.34C300.992 111.008 297.831 107.701 295.603 103.421C293.374 99.1412 292.28 94.0497 292.28 88.1874C292.28 82.3252 293.394 77.4366 295.603 73.1159C297.831 68.7953 300.952 65.428 304.984 63.0141C309.015 60.6003 313.777 59.3832 319.227 59.3832C322.894 59.3832 326.318 59.9714 329.479 61.1479C332.64 62.3245 335.415 64.0689 337.806 66.422C340.177 68.775 342.041 71.696 343.358 75.2458C344.675 78.7753 345.343 82.9134 345.343 87.66V91.8995H298.419V82.3454H330.836C330.836 80.1344 330.35 78.1465 329.398 76.4426C328.425 74.7387 327.108 73.3796 325.407 72.4059C323.705 71.4323 321.739 70.9455 319.49 70.9455C317.241 70.9455 315.074 71.4728 313.291 72.5479C311.487 73.623 310.089 75.0632 309.076 76.8483C308.063 78.6333 307.536 80.6415 307.516 82.8526V91.9401C307.516 94.6988 308.023 97.0721 309.056 99.0803C310.089 101.088 311.528 102.63 313.412 103.726C315.296 104.821 317.525 105.348 320.098 105.348C321.82 105.348 323.381 105.105 324.799 104.618C326.217 104.131 327.433 103.401 328.446 102.448C329.459 101.474 330.229 100.297 330.755 98.8977L345.019 99.8308C344.29 103.259 342.811 106.241 340.582 108.797C338.353 111.353 335.476 113.32 331.971 114.74C328.466 116.16 324.414 116.85 319.835 116.85L319.855 116.829Z" fill="#220E6D"/>
<path d="M384.996 60.0933V71.6758H351.525V60.0933H384.996ZM359.123 46.7662H374.542V98.6342C374.542 100.054 374.765 101.17 375.19 101.941C375.616 102.732 376.223 103.279 377.013 103.584C377.804 103.908 378.715 104.05 379.749 104.05C380.478 104.05 381.187 103.989 381.917 103.847C382.646 103.705 383.193 103.604 383.578 103.543L386.009 115.024C385.239 115.268 384.145 115.552 382.747 115.876C381.349 116.201 379.647 116.404 377.642 116.464C373.934 116.606 370.672 116.12 367.896 114.984C365.12 113.848 362.953 112.083 361.392 109.689C359.853 107.296 359.083 104.273 359.123 100.642V46.7662V46.7662Z" fill="#220E6D"/>
<path d="M424.564 60.0933V71.6758H391.093V60.0933H424.564ZM398.691 46.7662H414.11V98.6342C414.11 100.054 414.332 101.17 414.758 101.941C415.183 102.711 415.791 103.279 416.581 103.584C417.372 103.908 418.283 104.05 419.317 104.05C420.046 104.05 420.755 103.989 421.485 103.847C422.214 103.705 422.761 103.604 423.146 103.543L425.577 115.024C424.807 115.268 423.713 115.552 422.315 115.876C420.917 116.201 419.215 116.404 417.21 116.464C413.502 116.606 410.24 116.12 407.464 114.984C404.688 113.848 402.52 112.083 400.96 109.689C399.42 107.296 398.651 104.273 398.691 100.642V46.7662V46.7662Z" fill="#220E6D"/>
<path d="M459.334 116.829C453.62 116.829 448.697 115.673 444.584 113.34C440.471 111.008 437.31 107.701 435.081 103.421C432.873 99.1412 431.759 94.0497 431.759 88.1874C431.759 82.3252 432.873 77.4366 435.081 73.1159C437.31 68.7953 440.43 65.428 444.462 63.0141C448.494 60.6003 453.255 59.3832 458.705 59.3832C462.373 59.3832 465.797 59.9714 468.957 61.1479C472.118 62.3245 474.894 64.0689 477.285 66.422C479.655 68.775 481.519 71.696 482.836 75.2458C484.153 78.7956 484.822 82.9134 484.822 87.66V91.8995H437.898V82.3454H470.315C470.315 80.1344 469.829 78.1465 468.876 76.4426C467.904 74.7387 466.587 73.3796 464.885 72.4059C463.183 71.4323 461.218 70.9455 458.969 70.9455C456.72 70.9455 454.552 71.4728 452.769 72.5479C450.966 73.623 449.568 75.0632 448.555 76.8483C447.542 78.6333 447.015 80.6415 446.995 82.8526V91.9401C446.995 94.6988 447.501 97.0721 448.535 99.0803C449.568 101.088 451.006 102.63 452.891 103.726C454.775 104.821 457.004 105.348 459.577 105.348C461.299 105.348 462.859 105.105 464.277 104.618C465.695 104.131 466.911 103.401 467.924 102.448C468.937 101.474 469.707 100.297 470.234 98.8977L484.498 99.8308C483.768 103.259 482.289 106.241 480.06 108.797C477.832 111.353 474.955 113.32 471.45 114.74C467.944 116.16 463.892 116.85 459.313 116.85L459.334 116.829Z" fill="#220E6D"/>
<path d="M494.91 115.734V60.0931H509.863V69.8095H510.45C511.463 66.3611 513.165 63.7443 515.556 61.9593C517.947 60.1742 520.702 59.302 523.802 59.302C524.572 59.302 525.403 59.3426 526.294 59.444C527.186 59.5454 527.976 59.6671 528.644 59.8497V73.5419C527.915 73.3187 526.922 73.1362 525.646 72.9536C524.369 72.7913 523.194 72.7102 522.141 72.7102C519.871 72.7102 517.845 73.197 516.083 74.1707C514.3 75.1443 512.902 76.5034 511.889 78.2479C510.876 79.9924 510.349 82.0006 510.349 84.2522V115.734H494.93H494.91Z" fill="#220E6D"/>
<path d="M243.149 127.54V201.721H227.487V127.54H243.149Z" fill="#220E6D"/>
<path d="M271.19 169.569V201.741H255.771V146.1H270.46V155.918H271.109C272.345 152.693 274.391 150.116 277.288 148.23C280.186 146.344 283.691 145.39 287.824 145.39C291.694 145.39 295.057 146.242 297.914 147.926C300.791 149.609 303.02 152.023 304.6 155.147C306.2 158.271 306.991 162.003 306.991 166.324V201.741H291.572V169.062C291.592 165.655 290.721 162.997 288.959 161.07C287.196 159.143 284.764 158.19 281.685 158.19C279.618 158.19 277.775 158.636 276.194 159.529C274.614 160.421 273.378 161.719 272.507 163.423C271.635 165.127 271.169 167.176 271.149 169.569H271.19Z" fill="#220E6D"/>
<path d="M344.251 202.816C338.558 202.816 333.675 201.599 329.582 199.185C325.49 196.751 322.349 193.384 320.181 189.063C318.013 184.742 316.899 179.773 316.899 174.134C316.899 168.494 317.993 163.423 320.202 159.123C322.41 154.823 325.55 151.435 329.623 149.021C333.695 146.587 338.558 145.39 344.17 145.39C349.013 145.39 353.267 146.262 356.914 148.027C360.561 149.792 363.438 152.267 365.566 155.451C367.693 158.636 368.848 162.389 369.071 166.689H354.523C354.118 163.91 353.024 161.679 351.282 159.975C349.539 158.271 347.25 157.419 344.434 157.419C342.043 157.419 339.956 158.068 338.193 159.366C336.41 160.665 335.033 162.531 334.06 165.005C333.067 167.46 332.581 170.442 332.581 173.951C332.581 177.46 333.067 180.523 334.04 182.998C335.012 185.473 336.39 187.379 338.173 188.678C339.956 189.976 342.043 190.625 344.434 190.625C346.196 190.625 347.777 190.26 349.195 189.53C350.613 188.799 351.768 187.745 352.7 186.365C353.632 184.986 354.24 183.302 354.523 181.355H369.071C368.828 185.615 367.673 189.347 365.606 192.572C363.54 195.798 360.703 198.313 357.076 200.118C353.45 201.924 349.175 202.836 344.231 202.836L344.251 202.816Z" fill="#220E6D"/>
<path d="M386.758 138.919C384.469 138.919 382.503 138.149 380.862 136.627C379.221 135.086 378.411 133.26 378.411 131.11C378.411 128.96 379.221 127.154 380.862 125.613C382.503 124.071 384.448 123.321 386.718 123.321C388.987 123.321 391.013 124.091 392.634 125.613C394.255 127.154 395.085 128.98 395.085 131.11C395.085 133.24 394.275 135.106 392.634 136.627C391.013 138.169 389.048 138.919 386.758 138.919ZM378.978 201.721V146.08H394.396V201.721H378.978Z" fill="#220E6D"/>
<path d="M427.178 202.634C422.964 202.634 419.134 201.538 415.73 199.347C412.306 197.157 409.612 193.931 407.626 189.672C405.641 185.412 404.648 180.178 404.648 173.971C404.648 167.764 405.681 162.287 407.727 158.048C409.774 153.808 412.509 150.644 415.913 148.514C419.317 146.384 423.065 145.35 427.137 145.35C430.258 145.35 432.851 145.877 434.938 146.932C437.025 147.987 438.706 149.285 440.003 150.847C441.3 152.409 442.272 153.93 442.961 155.431H443.427V127.54H458.805V201.721H443.609V192.816H442.961C442.232 194.357 441.219 195.879 439.902 197.4C438.585 198.901 436.883 200.159 434.796 201.153C432.709 202.147 430.176 202.634 427.178 202.634V202.634ZM432.061 190.361C434.553 190.361 436.64 189.672 438.382 188.313C440.104 186.954 441.441 185.026 442.353 182.572C443.285 180.118 443.751 177.217 443.751 173.91C443.751 170.604 443.285 167.724 442.373 165.289C441.462 162.855 440.125 160.969 438.402 159.63C436.66 158.291 434.553 157.642 432.081 157.642C429.609 157.642 427.421 158.332 425.678 159.711C423.936 161.091 422.619 162.997 421.728 165.431C420.836 167.866 420.39 170.705 420.39 173.91C420.39 177.115 420.836 179.996 421.748 182.471C422.66 184.945 423.956 186.872 425.699 188.272C427.441 189.672 429.548 190.361 432.081 190.361H432.061Z" fill="#220E6D"/>
<path d="M496.733 202.816C491.019 202.816 486.096 201.66 481.983 199.327C477.87 196.995 474.709 193.688 472.481 189.408C470.272 185.128 469.158 180.037 469.158 174.174C469.158 168.312 470.272 163.423 472.481 159.103C474.709 154.782 477.829 151.415 481.861 149.001C485.893 146.587 490.654 145.37 496.105 145.37C499.772 145.37 503.196 145.958 506.357 147.135C509.517 148.311 512.293 150.056 514.684 152.409C517.054 154.762 518.918 157.683 520.235 161.233C521.552 164.783 522.221 168.9 522.221 173.647V177.886H475.297V168.332H507.714C507.714 166.121 507.228 164.133 506.276 162.43C505.303 160.726 503.986 159.367 502.284 158.393C500.582 157.419 498.617 156.932 496.368 156.932C494.119 156.932 491.951 157.46 490.168 158.535C488.365 159.61 486.967 161.05 485.954 162.835C484.941 164.62 484.414 166.628 484.394 168.839V177.927C484.394 180.686 484.9 183.059 485.934 185.067C486.967 187.075 488.406 188.617 490.29 189.712C492.174 190.808 494.403 191.335 496.976 191.335C498.698 191.335 500.258 191.092 501.676 190.605C503.095 190.118 504.31 189.388 505.323 188.435C506.336 187.461 507.106 186.284 507.633 184.885L521.897 185.818C521.167 189.246 519.688 192.228 517.46 194.784C515.231 197.339 512.354 199.307 508.849 200.727C505.344 202.147 501.291 202.837 496.712 202.837L496.733 202.816Z" fill="#220E6D"/>
<path d="M547.729 169.569V201.741H532.311V146.1H547V155.918H547.648C548.884 152.693 550.931 150.116 553.828 148.23C556.725 146.344 560.23 145.39 564.364 145.39C568.233 145.39 571.597 146.242 574.453 147.926C577.31 149.609 579.559 152.023 581.14 155.147C582.74 158.271 583.53 162.003 583.53 166.324V201.741H568.112V169.062C568.132 165.655 567.261 162.997 565.498 161.07C563.735 159.143 561.304 158.19 558.224 158.19C556.158 158.19 554.314 158.636 552.734 159.529C551.154 160.421 549.918 161.719 549.046 163.423C548.175 165.127 547.709 167.176 547.689 169.569H547.729Z" fill="#220E6D"/>
<path d="M625.228 146.08V157.663H591.757V146.08H625.228ZM599.355 132.753H614.773V184.621C614.773 186.041 614.996 187.156 615.421 187.927C615.847 188.718 616.475 189.266 617.245 189.57C618.035 189.895 618.947 190.037 619.98 190.037C620.71 190.037 621.419 189.976 622.148 189.834C622.878 189.692 623.424 189.591 623.809 189.53L626.241 201.011C625.471 201.254 624.377 201.538 622.979 201.863C621.581 202.187 619.879 202.39 617.873 202.451C614.165 202.593 610.903 202.106 608.128 200.97C605.352 199.834 603.184 198.07 601.624 195.676C600.084 193.282 599.314 190.26 599.355 186.629V132.733V132.753Z" fill="#220E6D"/>
<path d="M680.724 161.963L666.622 162.835C666.379 161.618 665.852 160.543 665.062 159.549C664.272 158.575 663.218 157.784 661.942 157.196C660.645 156.608 659.105 156.303 657.322 156.303C654.931 156.303 652.926 156.81 651.285 157.804C649.643 158.798 648.833 160.137 648.833 161.801C648.833 163.119 649.36 164.255 650.434 165.168C651.487 166.081 653.311 166.831 655.904 167.379L665.953 169.407C671.363 170.523 675.375 172.308 678.029 174.762C680.683 177.217 682 180.462 682 184.479C682 188.13 680.926 191.335 678.799 194.073C676.671 196.832 673.754 198.962 670.046 200.504C666.338 202.045 662.084 202.796 657.261 202.796C649.907 202.796 644.051 201.254 639.695 198.171C635.339 195.088 632.786 190.889 632.037 185.574L647.192 184.783C647.658 187.035 648.752 188.739 650.515 189.915C652.277 191.092 654.526 191.68 657.282 191.68C660.037 191.68 662.165 191.152 663.806 190.098C665.467 189.043 666.298 187.684 666.318 186.02C666.298 184.621 665.71 183.465 664.535 182.552C663.38 181.639 661.597 180.949 659.186 180.462L649.562 178.535C644.132 177.44 640.101 175.574 637.467 172.876C634.833 170.198 633.495 166.77 633.495 162.632C633.495 159.062 634.468 155.979 636.413 153.403C638.358 150.827 641.093 148.818 644.619 147.419C648.144 146.019 652.298 145.309 657.039 145.309C664.049 145.309 669.58 146.79 673.632 149.772C677.664 152.733 680.035 156.79 680.703 161.902L680.724 161.963Z" fill="#220E6D"/>
<path d="M23.7378 192.518C-7.9126 157.452 -7.9126 103.73 23.7378 68.7103L43.1763 88.1913C66.5024 111.569 66.5024 149.614 43.1763 173.037L23.7378 192.518V192.518Z" fill="#31C6E3"/>
<path d="M23.7378 192.518C-7.9126 157.452 -7.9126 103.73 23.7378 68.7103L43.1763 88.1913C66.5024 111.569 66.5024 149.614 43.1763 173.037L23.7378 192.518V192.518Z" fill="#245EDB"/>
<path d="M160.036 192.518C191.686 157.452 191.686 103.73 160.036 68.7103L140.598 88.1913C117.271 111.569 117.271 149.614 140.598 173.037L160.036 192.518Z" fill="#31C6E3"/>
<path d="M160.036 192.518C191.686 157.452 191.686 103.73 160.036 68.7103L140.598 88.1913C117.271 111.569 117.271 149.614 140.598 173.037L160.036 192.518Z" fill="#FEBE1D"/>
<path d="M92.1157 223C69.0639 223 47.2929 214.566 30.3242 199.164L49.7627 179.683C61.0599 168.361 76.1075 162.128 92.0699 162.128C108.032 162.128 123.08 168.361 134.377 179.683L153.816 199.164C136.847 214.566 115.076 223 92.0242 223H92.1157Z" fill="#FF5605"/>
<path d="M92.1157 223C69.0639 223 47.2929 214.566 30.3242 199.164L49.7627 179.683C61.0599 168.361 76.1075 162.128 92.0699 162.128C108.032 162.128 123.08 168.361 134.377 179.683L153.816 199.164C136.847 214.566 115.076 223 92.0242 223H92.1157Z" fill="#FF5605"/>
<path d="M89.3263 105.289C78.0749 104.601 67.6009 99.4677 59.6426 91.4919C43.4058 75.2196 43.4058 48.8171 59.6426 32.5906L92.1163 0L123.858 31.8113C140.461 48.4504 140.461 75.5404 123.858 92.1795C114.711 101.347 102.362 106.068 89.3263 105.289Z" fill="#31C6E3"/>
<path d="M89.3263 105.289C78.0749 104.601 67.6009 99.4677 59.6426 91.4919C43.4058 75.2196 43.4058 48.8171 59.6426 32.5906L92.1163 0L123.858 31.8113C140.461 48.4504 140.461 75.5404 123.858 92.1795C114.711 101.347 102.362 106.068 89.3263 105.289Z" fill="#31C6E3"/>
</svg>
